<svg width="548" height="315" viewBox="0 0 548 315" fill="none" xmlns="http://www.w3.org/2000/svg">
<path d="M0.759979 0.186829C10.96 0.176829 21.16 0.20684 31.37 0.16684C61.29 37.3468 90.97 74.7268 120.77 112.007C134.52 94.6568 148.29 77.3268 162.12 60.0468C162.09 90.1268 162.07 120.217 162.13 150.297C162 151.707 162.47 153.397 161.43 154.587C147.93 171.657 134.23 188.567 120.8 205.697C102.76 182.977 84.58 160.357 66.6 137.587C66.42 167.247 66.58 196.917 66.53 226.577C44.6 226.547 22.67 226.567 0.75 226.567C0.76 151.107 0.739979 75.6468 0.759979 0.186829Z" fill="#FFFFFF"/>
<path d="M174.92 43.9568C186.58 29.3568 198.06 14.5968 209.92 0.14682C220.19 0.23682 230.47 0.166829 240.74 0.186829C240.79 55.9368 240.72 111.697 240.77 167.447C263 167.457 285.23 167.447 307.46 167.447C297.68 187.117 287.95 206.807 278.34 226.547C243.88 226.587 209.42 226.537 174.95 226.567C174.96 165.697 175.01 104.827 174.92 43.9568Z" fill="#7CD225"/>
<path d="M401.94 5.12683C402.76 3.43683 403.64 1.77684 404.56 0.136841C414.73 0.246841 424.91 0.156849 435.09 0.176849C472.33 75.6368 509.59 151.087 546.8 226.567C523.83 226.557 500.85 226.577 477.87 226.557C458.36 182.287 438.74 138.057 419.85 93.5268C400.43 137.897 381.02 182.277 361.49 226.607C338.66 226.507 315.83 226.577 293 226.577C329.27 152.737 365.65 78.9568 401.94 5.12683Z" fill="#FFFFFF"/>
<path d="M395 167.324C412 167.253 429 167.307 446 167.298C437.54 186.967 428.947 206.582 420.567 226.287C411.831 206.733 403.442 187.011 395 167.324Z" fill="#7CD225"/>
<path d="M38.0343 269.676V301.607H29.2533V286.111L22.8201 293.389H20.1905L13.7573 286.111V301.607H4.97619V269.676H8.07539L21.5053 283.293L34.9351 269.676H38.0343ZM54.7043 276.954C55.9565 276.954 57.1774 277.236 58.367 277.799C59.5879 278.332 60.5897 279.02 61.3723 279.865V277.658H69.449V301.607H61.3723V297.615C60.7775 298.93 59.8696 300.042 58.6487 300.949C57.4278 301.857 55.9565 302.311 54.2347 302.311C52.4503 302.311 50.7755 301.857 49.2103 300.949C47.645 300.042 46.3615 298.649 45.3597 296.77C44.3893 294.861 43.9041 292.466 43.9041 289.586C43.9041 286.893 44.3893 284.608 45.3597 282.73C46.3615 280.852 47.6763 279.427 49.3042 278.457C50.9633 277.455 52.7634 276.954 54.7043 276.954ZM56.3948 284.843C55.2365 284.843 54.266 285.313 53.4834 286.252C52.7321 287.191 52.3564 288.302 52.3564 289.586C52.3564 290.869 52.7477 291.949 53.5304 292.826C54.313 293.702 55.3461 294.141 56.6296 294.141C57.3183 294.141 58.0226 293.968 58.7427 293.624C59.4627 293.248 60.0731 292.701 60.574 291.981C61.1062 291.229 61.3723 290.274 61.3723 289.116V286.815C60.6836 286.252 59.9009 285.782 59.0244 285.406C58.1792 285.031 57.3026 284.843 56.3948 284.843ZM92.3643 286.533C91.8947 286.283 91.3939 286.095 90.8617 285.97C90.3608 285.813 89.766 285.735 89.0773 285.735C87.9816 285.735 87.0111 286.064 86.1659 286.721C85.3207 287.379 84.632 288.24 84.0998 289.304V301.607H76.0231V277.658H84.0998V281.932C84.8511 280.648 85.6807 279.537 86.5885 278.598C87.5277 277.658 88.7486 277.189 90.2512 277.189C91.0652 277.189 91.7695 277.33 92.3643 277.611V286.533ZM102.836 264.229C103.744 264.229 104.573 264.448 105.325 264.886C106.107 265.324 106.733 265.919 107.203 266.67C107.672 267.39 107.907 268.204 107.907 269.112C107.907 269.989 107.672 270.803 107.203 271.554C106.733 272.305 106.107 272.9 105.325 273.338C104.573 273.777 103.744 273.996 102.836 273.996C101.49 273.996 100.316 273.526 99.314 272.587C98.3123 271.617 97.8114 270.458 97.8114 269.112C97.8114 267.735 98.3123 266.576 99.314 265.637C100.316 264.698 101.49 264.229 102.836 264.229ZM107.391 277.658V301.607H99.314V284.233H95.4166V277.658H107.391ZM123.169 276.954C124.421 276.954 125.642 277.236 126.831 277.799C128.052 278.332 129.054 279.02 129.836 279.865V277.658H137.913V301.607H129.836V297.615C129.242 298.93 128.334 300.042 127.113 300.949C125.892 301.857 124.421 302.311 122.699 302.311C120.915 302.311 119.24 301.857 117.674 300.949C116.109 300.042 114.826 298.649 113.824 296.77C112.853 294.861 112.368 292.466 112.368 289.586C112.368 286.893 112.853 284.608 113.824 282.73C114.826 280.852 116.141 279.427 117.768 278.457C119.428 277.455 121.228 276.954 123.169 276.954ZM124.859 284.843C123.701 284.843 122.73 285.313 121.948 286.252C121.196 287.191 120.821 288.302 120.821 289.586C120.821 290.869 121.212 291.949 121.995 292.826C122.777 293.702 123.81 294.141 125.094 294.141C125.782 294.141 126.487 293.968 127.207 293.624C127.927 293.248 128.537 292.701 129.038 291.981C129.57 291.229 129.836 290.274 129.836 289.116V286.815C129.148 286.252 128.365 285.782 127.489 285.406C126.643 285.031 125.767 284.843 124.859 284.843ZM152.564 277.658V280.758C153.315 279.725 154.223 278.832 155.288 278.081C156.383 277.33 157.729 276.954 159.326 276.954C161.768 276.954 163.756 277.784 165.289 279.443C166.855 281.102 167.637 283.559 167.637 286.815V301.607H159.561L159.514 288.083C159.514 286.893 159.185 286.064 158.528 285.594C157.87 285.093 157.135 284.843 156.321 284.843C155.444 284.843 154.708 285.078 154.114 285.547C153.519 285.986 153.002 286.518 152.564 287.144V301.607H144.487V277.658H152.564ZM185.481 276.954C187.14 276.954 188.753 277.267 190.318 277.893C191.883 278.519 193.292 279.396 194.544 280.523C195.796 281.65 196.782 282.996 197.502 284.561C198.254 286.095 198.629 287.786 198.629 289.633C198.629 291.48 198.254 293.186 197.502 294.751C196.782 296.285 195.796 297.615 194.544 298.742C193.292 299.869 191.883 300.746 190.318 301.372C188.753 301.998 187.14 302.311 185.481 302.311C183.822 302.311 182.21 301.998 180.645 301.372C179.079 300.746 177.671 299.869 176.418 298.742C175.166 297.615 174.164 296.285 173.413 294.751C172.693 293.186 172.333 291.48 172.333 289.633C172.333 287.786 172.693 286.095 173.413 284.561C174.164 282.996 175.166 281.65 176.418 280.523C177.671 279.396 179.079 278.519 180.645 277.893C182.21 277.267 183.822 276.954 185.481 276.954ZM185.481 284.702C184.918 284.702 184.276 284.827 183.556 285.078C182.867 285.328 182.273 285.813 181.772 286.533C181.271 287.222 181.02 288.255 181.02 289.633C181.02 290.979 181.271 292.012 181.772 292.732C182.273 293.452 182.867 293.937 183.556 294.188C184.276 294.438 184.918 294.563 185.481 294.563C186.076 294.563 186.718 294.438 187.407 294.188C188.095 293.937 188.69 293.452 189.191 292.732C189.692 292.012 189.942 290.979 189.942 289.633C189.942 288.255 189.692 287.222 189.191 286.533C188.69 285.813 188.095 285.328 187.407 285.078C186.718 284.827 186.076 284.702 185.481 284.702ZM227.367 270.145V293.859H241.502V301.607H218.586V270.145H227.367ZM258.688 276.954C260.942 276.954 262.946 277.455 264.699 278.457C266.452 279.458 267.814 280.867 268.784 282.683C269.786 284.467 270.287 286.596 270.287 289.069V291.84H253.992C254.337 292.998 255.026 293.859 256.059 294.422C257.092 294.986 258.281 295.268 259.627 295.268C261.443 295.268 263.008 295.017 264.323 294.516C265.669 293.984 266.671 293.53 267.328 293.154V300.057C266.514 300.558 265.387 301.059 263.947 301.56C262.539 302.061 260.942 302.311 259.158 302.311C257.467 302.311 255.824 302.029 254.227 301.466C252.662 300.902 251.253 300.089 250.001 299.024C248.749 297.96 247.763 296.676 247.043 295.174C246.323 293.64 245.963 291.918 245.963 290.008C245.963 287.629 246.511 285.453 247.606 283.481C248.733 281.509 250.251 279.928 252.161 278.738C254.102 277.549 256.278 276.954 258.688 276.954ZM258.453 283.622C257.42 283.622 256.528 283.904 255.777 284.467C255.026 284.999 254.478 285.829 254.133 286.956H262.633C262.633 285.829 262.194 284.999 261.318 284.467C260.473 283.904 259.518 283.622 258.453 283.622ZM286.252 276.954C287.911 276.954 289.524 277.267 291.089 277.893C292.654 278.519 294.063 279.396 295.315 280.523C296.567 281.65 297.553 282.996 298.273 284.561C299.025 286.095 299.4 287.786 299.4 289.633C299.4 291.48 299.025 293.186 298.273 294.751C297.553 296.285 296.567 297.615 295.315 298.742C294.063 299.869 292.654 300.746 291.089 301.372C289.524 301.998 287.911 302.311 286.252 302.311C284.593 302.311 282.981 301.998 281.416 301.372C279.85 300.746 278.442 299.869 277.189 298.742C275.937 297.615 274.936 296.285 274.184 294.751C273.464 293.186 273.104 291.48 273.104 289.633C273.104 287.786 273.464 286.095 274.184 284.561C274.936 282.996 275.937 281.65 277.189 280.523C278.442 279.396 279.85 278.519 281.416 277.893C282.981 277.267 284.593 276.954 286.252 276.954ZM286.252 284.702C285.689 284.702 285.047 284.827 284.327 285.078C283.638 285.328 283.044 285.813 282.543 286.533C282.042 287.222 281.791 288.255 281.791 289.633C281.791 290.979 282.042 292.012 282.543 292.732C283.044 293.452 283.638 293.937 284.327 294.188C285.047 294.438 285.689 294.563 286.252 294.563C286.847 294.563 287.489 294.438 288.178 294.188C288.866 293.937 289.461 293.452 289.962 292.732C290.463 292.012 290.713 290.979 290.713 289.633C290.713 288.255 290.463 287.222 289.962 286.533C289.461 285.813 288.866 285.328 288.178 285.078C287.489 284.827 286.847 284.702 286.252 284.702ZM312.408 277.658V280.758C313.159 279.725 314.067 278.832 315.131 278.081C316.227 277.33 317.573 276.954 319.17 276.954C321.611 276.954 323.599 277.784 325.133 279.443C326.698 281.102 327.481 283.559 327.481 286.815V301.607H319.404L319.357 288.083C319.357 286.893 319.029 286.064 318.371 285.594C317.714 285.093 316.978 284.843 316.164 284.843C315.288 284.843 314.552 285.078 313.957 285.547C313.363 285.986 312.846 286.518 312.408 287.144V301.607H304.331V277.658H312.408ZM344.902 276.954C347.156 276.954 349.16 277.455 350.913 278.457C352.666 279.458 354.028 280.867 354.998 282.683C356 284.467 356.501 286.596 356.501 289.069V291.84H340.207C340.551 292.998 341.24 293.859 342.273 294.422C343.306 294.986 344.495 295.268 345.842 295.268C347.657 295.268 349.222 295.017 350.537 294.516C351.883 293.984 352.885 293.53 353.543 293.154V300.057C352.729 300.558 351.602 301.059 350.162 301.56C348.753 302.061 347.156 302.311 345.372 302.311C343.681 302.311 342.038 302.029 340.441 301.466C338.876 300.902 337.467 300.089 336.215 299.024C334.963 297.96 333.977 296.676 333.257 295.174C332.537 293.64 332.177 291.918 332.177 290.008C332.177 287.629 332.725 285.453 333.82 283.481C334.947 281.509 336.466 279.928 338.375 278.738C340.316 277.549 342.492 276.954 344.902 276.954ZM344.668 283.622C343.635 283.622 342.742 283.904 341.991 284.467C341.24 284.999 340.692 285.829 340.347 286.956H348.847C348.847 285.829 348.409 284.999 347.532 284.467C346.687 283.904 345.732 283.622 344.668 283.622ZM369.039 267.797V301.607H360.962V267.797H369.039Z" fill="#FFFFFF"/>
<path d="M405.853 269.676L420.41 301.607H410.173L408.624 297.381H398.669L397.119 301.607H386.883L401.439 269.676H405.853ZM403.646 283.857L401.252 290.337H406.041L403.646 283.857ZM435.155 276.954C437.002 276.954 438.411 277.251 439.381 277.846C440.383 278.41 441.291 279.005 442.105 279.631V286.674C441.385 286.142 440.555 285.72 439.616 285.406C438.708 285.093 437.581 284.937 436.235 284.937C435.515 284.937 434.764 285.125 433.981 285.5C433.198 285.876 432.541 286.424 432.009 287.144C431.477 287.833 431.21 288.709 431.21 289.774C431.21 291.339 431.711 292.528 432.713 293.342C433.715 294.156 434.889 294.563 436.235 294.563C437.581 294.563 438.708 294.407 439.616 294.094C440.555 293.749 441.385 293.327 442.105 292.826V299.869C441.291 300.496 440.383 301.059 439.381 301.56C438.411 302.061 437.002 302.311 435.155 302.311C433.371 302.311 431.711 301.983 430.177 301.325C428.643 300.636 427.297 299.713 426.139 298.555C425.012 297.365 424.12 296.019 423.462 294.516C422.836 293.014 422.523 291.433 422.523 289.774C422.523 288.114 422.836 286.518 423.462 284.984C424.12 283.45 425.012 282.088 426.139 280.899C427.297 279.678 428.643 278.723 430.177 278.034C431.711 277.314 433.371 276.954 435.155 276.954ZM457.835 276.954C459.495 276.954 461.107 277.267 462.672 277.893C464.237 278.519 465.646 279.396 466.898 280.523C468.15 281.65 469.137 282.996 469.857 284.561C470.608 286.095 470.984 287.786 470.984 289.633C470.984 291.48 470.608 293.186 469.857 294.751C469.137 296.285 468.15 297.615 466.898 298.742C465.646 299.869 464.237 300.746 462.672 301.372C461.107 301.998 459.495 302.311 457.835 302.311C456.176 302.311 454.564 301.998 452.999 301.372C451.434 300.746 450.025 299.869 448.773 298.742C447.52 297.615 446.519 296.285 445.767 294.751C445.047 293.186 444.687 291.48 444.687 289.633C444.687 287.786 445.047 286.095 445.767 284.561C446.519 282.996 447.52 281.65 448.773 280.523C450.025 279.396 451.434 278.519 452.999 277.893C454.564 277.267 456.176 276.954 457.835 276.954ZM457.835 284.702C457.272 284.702 456.63 284.827 455.91 285.078C455.221 285.328 454.627 285.813 454.126 286.533C453.625 287.222 453.374 288.255 453.374 289.633C453.374 290.979 453.625 292.012 454.126 292.732C454.627 293.452 455.221 293.937 455.91 294.188C456.63 294.438 457.272 294.563 457.835 294.563C458.43 294.563 459.072 294.438 459.761 294.188C460.449 293.937 461.044 293.452 461.545 292.732C462.046 292.012 462.296 290.979 462.296 289.633C462.296 288.255 462.046 287.222 461.545 286.533C461.044 285.813 460.449 285.328 459.761 285.078C459.072 284.827 458.43 284.702 457.835 284.702ZM484.273 276.954C485.838 276.954 487.278 277.189 488.593 277.658C489.939 278.097 491.019 278.707 491.833 279.49V285.829C491.019 285.328 490.095 284.859 489.062 284.42C488.029 283.951 486.918 283.716 485.728 283.716C484.977 283.716 484.304 283.873 483.709 284.186C483.146 284.467 482.864 284.921 482.864 285.547C482.864 285.986 483.036 286.314 483.38 286.533C483.725 286.753 484.398 286.987 485.4 287.238L486.855 287.613C491.019 288.678 493.101 290.916 493.101 294.328C493.101 295.894 492.631 297.287 491.692 298.508C490.784 299.697 489.579 300.636 488.076 301.325C486.605 301.983 485.008 302.311 483.286 302.311C481.502 302.311 479.843 302.061 478.309 301.56C476.775 301.028 475.46 300.386 474.365 299.635V293.342C475.492 294.031 476.759 294.61 478.168 295.08C479.608 295.549 480.892 295.784 482.019 295.784C482.926 295.784 483.584 295.675 483.991 295.455C484.429 295.236 484.648 294.845 484.648 294.281C484.648 293.843 484.398 293.514 483.897 293.295C483.396 293.045 482.676 292.763 481.737 292.45L479.342 291.699C477.589 291.167 476.305 290.337 475.492 289.21C474.678 288.052 474.271 286.643 474.271 284.984C474.271 283.325 474.709 281.9 475.585 280.711C476.462 279.521 477.652 278.598 479.154 277.94C480.688 277.283 482.394 276.954 484.273 276.954ZM508.033 270.615V277.658H514.325V283.998H508.033V290.713C508.033 291.871 508.268 292.794 508.738 293.483C509.238 294.141 509.927 294.469 510.804 294.469C512.181 294.469 513.449 294.125 514.607 293.436V299.729C514.106 300.417 513.308 301.028 512.212 301.56C511.148 302.061 509.833 302.311 508.268 302.311C506.765 302.311 505.388 301.967 504.136 301.278C502.883 300.589 501.866 299.603 501.083 298.32C500.332 297.036 499.956 295.487 499.956 293.671V283.998H495.918V279.067C497.452 278.66 498.955 277.784 500.426 276.438C501.929 275.06 503.024 273.119 503.713 270.615H508.033ZM528.695 276.954C529.947 276.954 531.168 277.236 532.357 277.799C533.578 278.332 534.58 279.02 535.362 279.865V277.658H543.439V301.607H535.362V297.615C534.768 298.93 533.86 300.042 532.639 300.949C531.418 301.857 529.947 302.311 528.225 302.311C526.441 302.311 524.766 301.857 523.2 300.949C521.635 300.042 520.352 298.649 519.35 296.77C518.379 294.861 517.894 292.466 517.894 289.586C517.894 286.893 518.379 284.608 519.35 282.73C520.352 280.852 521.667 279.427 523.294 278.457C524.954 277.455 526.754 276.954 528.695 276.954ZM530.385 284.843C529.227 284.843 528.256 285.313 527.474 286.252C526.722 287.191 526.347 288.302 526.347 289.586C526.347 290.869 526.738 291.949 527.521 292.826C528.303 293.702 529.336 294.141 530.62 294.141C531.308 294.141 532.013 293.968 532.733 293.624C533.453 293.248 534.063 292.701 534.564 291.981C535.096 291.229 535.362 290.274 535.362 289.116V286.815C534.674 286.252 533.891 285.782 533.015 285.406C532.169 285.031 531.293 284.843 530.385 284.843Z" fill="#7CD225"/>
</svg>
